<svg xmlns="http://www.w3.org/2000/svg" width="24.315" height="24.315" viewBox="0 0 24.315 24.315"><g transform="translate(0 0)"><path d="M426.16,493h1.995a1.374,1.374,0,0,0,.161.036,12.008,12.008,0,0,1,7.782,3.885,11.844,11.844,0,0,1,3.006,5.906c.086.441.142.889.211,1.334V506.2c-.013.078-.03.155-.039.232a11.564,11.564,0,0,1-4.618,8.342,11.224,11.224,0,0,1-4.349,2.088c-.7.158-1.4.3-2.107.45H426.16c-.125-.018-.249-.037-.374-.053a12.073,12.073,0,0,1-7.425-3.71,11.849,11.849,0,0,1-3.087-5.762c-.118-.54-.184-1.09-.274-1.636V504.16c.036-.258.069-.516.109-.774a12.037,12.037,0,0,1,3.777-7.138,11.847,11.847,0,0,1,5.639-2.974C425.064,493.156,425.615,493.09,426.16,493Zm8.007,8.21a3.135,3.135,0,0,0-.132-.547,1.308,1.308,0,0,0-2.143-.351c-.853.88-1.682,1.784-2.519,2.68q-1.888,2.019-3.769,4.045c-.154.167-.244.153-.388-.017q-1.339-1.571-2.7-3.126a1.326,1.326,0,0,0-2.21.254,1.407,1.407,0,0,0,.311,1.613q1.868,2.117,3.728,4.241a1.208,1.208,0,0,0,.7.418,1.6,1.6,0,0,0,1.485-.5c.3-.293.569-.616.855-.922q3.168-3.389,6.339-6.776A1.547,1.547,0,0,0,434.168,501.21Z" transform="translate(-415 -493)" fill="#458bff"/></g></svg>