<svg xmlns="http://www.w3.org/2000/svg" width="24.712" height="27.505" viewBox="0 0 24.712 27.505"><path d="M-868.168,142.3l2.888.795c.184-.318.394-.686.608-1.052a.89.89,0,0,1,1.384-.364c.38.216.762.431,1.137.656a.859.859,0,0,1,.331,1.256c-.217.391-.444.776-.682,1.19.087.076.167.148.25.218a12.165,12.165,0,0,1,4.533,10.156A12.339,12.339,0,0,1-867.8,166.709a12.344,12.344,0,0,1-14.064-8.5,12.363,12.363,0,0,1,9.174-15.713,8.547,8.547,0,0,1,1.022-.173c.223-.021.263-.116.259-.31-.01-.54-.006-1.08,0-1.619a.879.879,0,0,1,.975-.987c.448,0,.9-.009,1.344,0a.869.869,0,0,1,.927.945C-868.163,141.018-868.168,141.678-868.168,142.3Zm7.438,12.254a9.335,9.335,0,0,0-9.3-9.318,9.34,9.34,0,0,0-9.357,9.361,9.343,9.343,0,0,0,9.368,9.289A9.337,9.337,0,0,0-860.73,154.559Z" transform="translate(882.424 -139.404)" fill="#458bff"/><path d="M-709.89,305.2a1.935,1.935,0,0,1-1.938-1.943,1.875,1.875,0,0,1,1.931-1.894.88.88,0,0,0,.9-.446c.661-.878,1.345-1.738,2.02-2.606.056-.072.11-.147.172-.215a.85.85,0,0,1,1.179-.124.852.852,0,0,1,.127,1.157c-.275.378-.573.74-.86,1.11-.532.682-1.059,1.368-1.6,2.044a.415.415,0,0,0-.085.436A1.914,1.914,0,0,1-709.89,305.2Z" transform="translate(722.255 -288.107)" fill="#458bff"/></svg>