<svg xmlns="http://www.w3.org/2000/svg" width="38.488" height="38.276" viewBox="0 0 38.488 38.276"><path d="M491,321.255l-19.724,19.73-7.742-7.727,19.74-19.731Z" transform="translate(-459.36 -307.027)" fill="#fff"/><path d="M810.394,214.856c1.1-1.123,2.2-2.3,3.347-3.415a3.384,3.384,0,0,1,4.659-.012c1.251,1.2,2.5,2.407,3.672,3.68a2.509,2.509,0,0,1-.027,3.611c-1.267,1.343-2.615,2.611-3.9,3.885Z" transform="translate(-784.337 -210.505)" fill="#fff"/><path d="M407.095,669.039l-3.489.848q-2.48.6-4.96,1.2c-.875.211-1.4-.309-1.205-1.189q.942-4.245,1.887-8.488c.011-.048.028-.095.032-.11Z" transform="translate(-397.4 -632.861)" fill="#fff"/></svg>