<svg xmlns="http://www.w3.org/2000/svg" width="50.036" height="33" viewBox="0 0 50.036 33"><g transform="translate(0 0)"><path d="M1110.338-525.318,1093.8-541.026l16.368-13.029.167.885Z" transform="translate(-1060.302 555.365)" fill="#fff"/><path d="M751-553.966l.276-.755,15.856,12.845c-.1.106-.171.206-.261.29q-7.838,7.273-15.68,14.543c-.059.054-.127.1-.191.147Z" transform="translate(-751 555.966)" fill="#fff"/><path d="M802.105-393.431a2.419,2.419,0,0,1-1.626.57H776.888q-10.5,0-21-.006a9.04,9.04,0,0,1-1.843-.141,3.052,3.052,0,0,1-1.138-.591c-.268-.2-.287-.466.029-.76q5.344-4.975,10.66-9.981l6.057-5.679c.166-.155.335-.308.549-.5l7.228,5.85,6.991-5.559Z" transform="translate(-752.533 425.86)" fill="#fff"/><path d="M773.289-567.456h45.952c-.211.179-.328.284-.451.381q-11.318,8.919-22.632,17.844a.455.455,0,0,1-.7.007q-10.957-8.941-21.928-17.864c-.1-.079-.189-.166-.283-.249Z" transform="translate(-771.075 567.456)" fill="#fff"/></g></svg>