<?xml version="1.0" encoding="utf-8"?>
<!-- Generator: Adobe Illustrator 23.0.3, SVG Export Plug-In . SVG Version: 6.00 Build 0)  -->
<svg version="1.1" id="Layer_1" xmlns="http://www.w3.org/2000/svg" xmlns:xlink="http://www.w3.org/1999/xlink" x="0px" y="0px"
	 viewBox="0 0 100 100" style="enable-background:new 0 0 100 100;" xml:space="preserve">
<style type="text/css">
	.st0{fill:#FFFFFF;}
</style>
<path class="st0" d="M34,95h32c5.6,0,10.1-4.3,10.1-9.6V14.6C76.1,9.3,71.6,5,66,5H34c-5.6,0-10.1,4.3-10.1,9.6v70.9
	C23.9,90.7,28.4,95,34,95 M50,91.7c-2.5,0-4.5-2-4.5-4.5c0-2.5,2-4.5,4.5-4.5c2.5,0,4.5,2,4.5,4.5C54.5,89.7,52.5,91.7,50,91.7
	 M43.1,10.8h13.7c0.6,0,1,0.4,1,0.9c0,0.5-0.5,0.9-1,0.9H43.1c-0.5,0-1-0.4-1-0.9C42.1,11.2,42.6,10.8,43.1,10.8 M27.9,21.6
	c0-0.8,0.7-1.4,1.5-1.4h41.3c0.8,0,1.5,0.6,1.5,1.4v56.5c0,0.8-0.7,1.4-1.5,1.4H29.4c-0.8,0-1.5-0.6-1.5-1.4L27.9,21.6"/>
</svg>
