<svg xmlns="http://www.w3.org/2000/svg" xmlns:xlink="http://www.w3.org/1999/xlink" width="29.685" height="37.876" viewBox="0 0 29.685 37.876"><defs><clipPath id="a"><rect width="29.685" height="37.876" fill="none"/></clipPath></defs><g clip-path="url(#a)"><g transform="translate(0 0)"><path d="M-660.362,459.736h26.673c-.084.894-.162,1.756-.247,2.617q-.507,5.143-1.018,10.286-.5,5.056-1.01,10.111c-.177,1.772-.391,3.541-.514,5.316a3.118,3.118,0,0,1-3.2,2.808h-12.254c-.826,0-1.651,0-2.477,0a3.049,3.049,0,0,1-3.165-2.826c-.357-3.441-.684-6.886-1.027-10.328q-.5-5.056-1.01-10.111-.374-3.782-.735-7.564C-660.351,459.957-660.354,459.871-660.362,459.736ZM-642.6,483.52a1.3,1.3,0,0,0,1.273,1.413,1.5,1.5,0,0,0,1.7-1.3c.043-.418.074-.836.109-1.255q.373-4.479.746-8.957c.213-2.553.421-5.107.645-7.659a1.339,1.339,0,0,0-1.171-1.583,1.45,1.45,0,0,0-1.8,1.241c-.057.474-.074.952-.113,1.428q-.368,4.436-.739,8.871Zm-13.32-17.57c.052.644.1,1.207.143,1.769q.33,3.96.662,7.919c.225,2.683.443,5.367.69,8.048a1.47,1.47,0,0,0,.358.76,1.4,1.4,0,0,0,1.621.362,1.572,1.572,0,0,0,.96-1.563c-.08-1.112-.184-2.222-.278-3.332q-.33-3.938-.659-7.876c-.179-2.149-.345-4.3-.537-6.448a1.574,1.574,0,0,0-1.687-1.413,1.457,1.457,0,0,0-1.273,1.507C-655.922,465.8-655.918,465.916-655.918,465.95Zm7.408,8.585c0,2.983-.005,5.966,0,8.949a1.391,1.391,0,0,0,1.495,1.453,1.385,1.385,0,0,0,1.459-1.445q.008-8.927,0-17.854a1.376,1.376,0,0,0-1.514-1.465,1.383,1.383,0,0,0-1.44,1.5Q-648.516,470.1-648.51,474.535Z" transform="translate(661.868 -452.999)" fill="#fff"/><path d="M-677.674,378.417a16.609,16.609,0,0,1,.011-1.673,1.363,1.363,0,0,1,1.536-1.265c2-.007,4,0,5.995,0h2.646c.275-.449.421-.938.747-1.153a2.645,2.645,0,0,1,1.35-.317c1.751-.034,3.5-.015,5.256-.013,1.116,0,1.542.35,1.77,1.483h.543q4.04,0,8.08,0c1.2,0,1.723.512,1.734,1.711,0,.4,0,.8,0,1.231Z" transform="translate(677.691 -373.985)" fill="#fff"/></g></g></svg>