<svg xmlns="http://www.w3.org/2000/svg" width="23" height="23" viewBox="0 0 23 23"><defs><style>.a{fill:#00b21b;}</style></defs><path class="a" d="M425.557,493h1.887a1.3,1.3,0,0,0,.152.034,11.359,11.359,0,0,1,7.361,3.675A11.2,11.2,0,0,1,437.8,502.3c.082.417.134.841.2,1.262v1.932c-.012.073-.029.146-.037.22A10.938,10.938,0,0,1,433.6,513.6a10.618,10.618,0,0,1-4.114,1.975c-.663.15-1.329.285-1.993.426h-1.932c-.118-.017-.236-.035-.354-.05a11.42,11.42,0,0,1-7.024-3.509,11.208,11.208,0,0,1-2.92-5.45c-.112-.51-.174-1.031-.259-1.547v-1.887c.034-.244.065-.488.1-.732a11.386,11.386,0,0,1,3.573-6.752,11.206,11.206,0,0,1,5.334-2.814C424.52,493.147,425.041,493.085,425.557,493Zm7.574,7.766a2.967,2.967,0,0,0-.124-.517,1.237,1.237,0,0,0-2.027-.332c-.807.832-1.591,1.687-2.383,2.535q-1.785,1.91-3.566,3.826c-.146.158-.231.145-.367-.016q-1.267-1.486-2.55-2.957a1.255,1.255,0,0,0-2.09.24,1.33,1.33,0,0,0,.295,1.526q1.767,2,3.527,4.011a1.142,1.142,0,0,0,.66.4,1.517,1.517,0,0,0,1.4-.476c.282-.278.538-.583.808-.872q3-3.206,6-6.409A1.463,1.463,0,0,0,433.131,500.766Z" transform="translate(-415 -493)"/></svg>