<svg xmlns="http://www.w3.org/2000/svg" width="24.315" height="24.263" viewBox="0 0 24.315 24.263"><path d="M589,451.675c.064-.346.126-.692.191-1.038a12.147,12.147,0,0,1,23.671-1.075,11.789,11.789,0,0,1-2.946,11.6,11.386,11.386,0,0,1-7.1,3.629,12.055,12.055,0,0,1-13.51-9.5c-.108-.536-.2-1.075-.305-1.613Zm13.32,5.7a13.177,13.177,0,0,0,1.386-.667,2.616,2.616,0,0,0,1.1-2.913,2.322,2.322,0,0,0-1.877-1.887c-.45-.123-.927-.146-1.387-.235a7.169,7.169,0,0,1-1.362-.324.573.573,0,0,1-.044-1.05,1.937,1.937,0,0,1,2.264.407c.435.723.7.586,1.289.3.224-.108.45-.214.671-.328a.474.474,0,0,0,.224-.7,3.13,3.13,0,0,0-1.615-1.6c-.224-.1-.457-.178-.628-.243l-.223-.934a3.318,3.318,0,0,0-1.922.094l-.081.779a12.325,12.325,0,0,0-1.472.67,2.371,2.371,0,0,0-1.113,2.351,2.307,2.307,0,0,0,1.529,2.177,11.5,11.5,0,0,0,1.52.392c.46.095.937.113,1.392.222.328.079.638.273.64.67a.691.691,0,0,1-.6.7,6.539,6.539,0,0,1-1.232.1,1.261,1.261,0,0,1-1.1-.633c-.413-.628-.423-.622-1.12-.383-.183.063-.371.114-.548.19-.568.242-.64.449-.39,1.038a2.869,2.869,0,0,0,1.648,1.55c.275.113.567.186.842.275l.106.867a3.408,3.408,0,0,0,1.927.042Z" transform="translate(-589 -440.627)" fill="#458bff"/></svg>