<svg xmlns="http://www.w3.org/2000/svg" width="30.365" height="33.797" viewBox="0 0 30.365 33.797"><path d="M-864.907,142.968l3.548.977c.226-.391.484-.843.747-1.292a1.093,1.093,0,0,1,1.7-.447c.467.266.936.529,1.4.806a1.055,1.055,0,0,1,.407,1.543c-.267.48-.546.954-.838,1.463.107.093.205.182.307.267a14.947,14.947,0,0,1,5.571,12.48,15.161,15.161,0,0,1-12.387,14.19,15.168,15.168,0,0,1-17.281-10.442,15.191,15.191,0,0,1,11.272-19.307,10.5,10.5,0,0,1,1.256-.213c.274-.025.323-.142.318-.381-.013-.663-.008-1.327-.006-1.99a1.079,1.079,0,0,1,1.2-1.212c.551,0,1.1-.011,1.652,0a1.068,1.068,0,0,1,1.139,1.162C-864.9,141.387-864.907,142.2-864.907,142.968Zm9.139,15.057a11.471,11.471,0,0,0-11.432-11.45,11.476,11.476,0,0,0-11.5,11.5,11.48,11.48,0,0,0,11.511,11.414A11.474,11.474,0,0,0-855.768,158.025Z" transform="translate(882.424 -139.404)" fill="#fff"/><path d="M-709.447,306.893a2.378,2.378,0,0,1-2.382-2.387,2.3,2.3,0,0,1,2.373-2.328,1.082,1.082,0,0,0,1.1-.548c.813-1.078,1.652-2.136,2.482-3.2.069-.089.136-.18.211-.264a1.045,1.045,0,0,1,1.449-.153,1.046,1.046,0,0,1,.156,1.422c-.338.465-.7.91-1.057,1.363-.653.838-1.3,1.681-1.963,2.512a.51.51,0,0,0-.1.536A2.351,2.351,0,0,1-709.447,306.893Z" transform="translate(724.639 -285.893)" fill="#fff"/></svg>