<svg xmlns="http://www.w3.org/2000/svg" width="24.315" height="21.795" viewBox="0 0 24.315 21.795"><g transform="translate(0 0)"><path d="M789.014,440.9a2.586,2.586,0,0,0,2.279,2.686c.525.044,1.056.024,1.585.03.674.007.944.272.952.938q0,.148,0,.3c-.007.681-.259.937-.943.938q-4.46,0-8.92,0c-.65,0-1.3,0-1.949,0a.791.791,0,0,1-.886-.872c0-.033,0-.066,0-.1,0-1,.2-1.2,1.195-1.2.407,0,.816.013,1.222-.018a2.605,2.605,0,0,0,2.424-2.515c.01-.209-.061-.285-.252-.338a7.621,7.621,0,0,1-5.471-5.238.832.832,0,0,0-.776-.673,4.736,4.736,0,0,1-3.908-4.524c-.042-1.5-.025-3-.013-4.493a1.009,1.009,0,0,1,1.34-1.02l2.953.653c.008-.1.019-.188.021-.271a1.081,1.081,0,0,1,1.179-1.167q4.592,0,9.184,0c1.266,0,2.534.026,3.8-.009.981-.028,1.5.305,1.506,1.428.106-.014.209-.02.31-.043.891-.2,1.781-.4,2.672-.6a1.018,1.018,0,0,1,1.321,1.022c.011,1.574.037,3.151-.025,4.723a4.775,4.775,0,0,1-4.056,4.328.577.577,0,0,0-.569.483,7.66,7.66,0,0,1-5.8,5.47C789.265,440.845,789.148,440.871,789.014,440.9Zm-11.453-13.9c0,1.16-.058,2.3.016,3.426a2.71,2.71,0,0,0,2.268,2.428,1.418,1.418,0,0,0,.017-.158c0-1.718,0-3.435,0-5.183Zm17.956,5.863a2.672,2.672,0,0,0,2.244-2.267c.109-1.091.056-2.2.073-3.3,0-.093-.012-.187-.019-.3-.712.158-1.4.318-2.086.455-.219.044-.212.172-.211.334q0,1.668,0,3.336C795.517,431.7,795.517,432.274,795.517,432.868Z" transform="translate(-775.537 -424)" fill="#458bff"/></g></svg>