<svg xmlns="http://www.w3.org/2000/svg" width="23" height="23" viewBox="0 0 23 23"><defs><style>.a{fill:#ba0000;}</style></defs><path class="a" d="M11.5,23A11.5,11.5,0,0,1,3.368,3.368,11.5,11.5,0,1,1,19.632,19.632,11.424,11.424,0,0,1,11.5,23Zm.209-9.137h0l2.785,3.59a1.442,1.442,0,0,0,1.219.674,1.192,1.192,0,0,0,1.219-1.219,1.554,1.554,0,0,0-.435-1L13.276,12.1,16.388,8.38a1.34,1.34,0,0,0,.37-.892,1.186,1.186,0,0,0-1.241-1.153,1.448,1.448,0,0,0-1.132.674l-2.633,3.373L9.163,6.987a1.468,1.468,0,0,0-1.219-.653A1.192,1.192,0,0,0,6.726,7.553a1.558,1.558,0,0,0,.435,1l3.025,3.59L6.922,16.061a1.291,1.291,0,0,0-.37.915,1.175,1.175,0,0,0,1.219,1.153,1.506,1.506,0,0,0,1.153-.674l2.785-3.59Z"/></svg>